<svg viewBox="0 0 53 49" fill="none" xmlns="http://www.w3.org/2000/svg" class="w-10"><path d="M25.5 1.38A6.89 6.89 0 0 0 19.35.3L4.957 4.616A6.914 6.914 0 0 0 0 11.28v30.76a6.889 6.889 0 0 0 2.804 5.578 6.892 6.892 0 0 0 6.15 1.082l10.743-3.224a11.834 11.834 0 0 1-.506-3.437V28.07a11.71 11.71 0 0 1 3.017-7.883 11.787 11.787 0 0 1 5.357-3.375l.738-.211V6.962A6.895 6.895 0 0 0 25.5 1.381Z" fill="#02D1AE"></path><path d="M52.289 23.752v13.97a6.909 6.909 0 0 1-4.958 6.66L32.939 48.7a6.89 6.89 0 0 1-6.15-1.082 6.947 6.947 0 0 1-1.441-1.439 6.752 6.752 0 0 1-1.075-2.144c-.002 0-.005 0-.007.002l.005-.005a7.14 7.14 0 0 1-.286-1.993V28.07c0-1.433.427-2.779 1.18-3.897a6.906 6.906 0 0 1 3.779-2.765l1.76-.528 12.631-3.79a6.89 6.89 0 0 1 6.15 1.082 6.895 6.895 0 0 1 2.804 5.581Z" fill="#02D1AE"></path></svg>